# Alias OBJ Model File
# Exported from SketchUp, (c) 2000-2012 Trimble Navigation Limited
# File units = meters

mtllib aedeco_banner_halfpoint.mtl

g Mesh1 Group1 Model

usemtl Carpet_Pattern_Squares_Multi
v 0.5 0.5 0.5
vt 1.51423 5.46571e-16
vn 0 1 -0
v -0.5 0.5 0.49
vt -2.73286e-16 0.0151423
v -0.5 0.5 0.5
vt -2.73286e-16 5.46571e-16
f 1/1/1 2/2/1 3/3/1

v 0.5 0.5 0.49
vt 1.51423 0.0151423
f 2/2/1 1/1/1 4/4/1

vt 5.46571e-16 3.02847
vn 1 0 -0
v 0.5 -1.1 0.49
vt 0.0151423 0.605694
vt 0.0151423 3.02847
f 1/5/2 5/6/2 4/7/2

v 0.5 -1.1 0.5
vt 5.46571e-16 0.605694
f 5/6/2 1/5/2 6/8/2

v -0.5 -1.1 0.5
vt -2.73286e-16 0.605694
vn 2.27456e-17 6.35762e-17 1
vt 1.51423 0.605694
vt 1.51423 3.02847
f 7/9/3 6/10/3 1/11/3

v -0.271355 -1.33301 0.5
vt 0.346222 0.252867
f 7/9/3 8/12/3 6/10/3

v -0.377913 -1.36088 0.5
vt 0.184868 0.210653
f 8/12/3 7/9/3 9/13/3

vt -5.46571e-16 0.548594
vn -0.905729 -0.423856 -3.99843e-15
v -0.377913 -1.36088 0.49
vt -0.0151423 0.112437
vt -8.16117e-16 0.112437
f 7/14/4 10/15/4 9/16/4

v -0.5 -1.1 0.49
vt -0.0151423 0.548594
f 10/15/4 7/14/4 11/17/4

vt -5.46571e-16 0.605694
vn -1 0 -0
vt -0.0151423 3.02847
vt -0.0151423 0.605694
f 7/18/5 2/19/5 11/20/5

vt -5.46571e-16 3.02847
f 2/19/5 7/18/5 3/21/5

vt -2.73286e-16 3.02847
f 7/9/3 1/11/3 3/22/3

vt -1.51423 0.605694
vn -2.6664e-17 -1.01559e-16 -1
vt 2.72882e-16 0.605694
vt 2.72882e-16 3.02847
f 5/23/6 11/24/6 2/25/6

v -0.271355 -1.33301 0.49
vt -0.346222 0.252867
f 5/23/6 12/26/6 11/24/6

v 0.284512 -1.33392 0.49
vt -1.18793 0.251477
f 5/23/6 13/27/6 12/26/6

v 0.393168 -1.36088 0.49
vt -1.35247 0.210653
f 13/27/6 5/23/6 14/28/6

vt 6.30467e-16 1.13435
vn 0.925415 -0.378956 5.12723e-17
vt 0.0151423 0.707466
vt 0.0151423 1.13435
f 6/29/7 14/30/7 5/31/7

v 0.393168 -1.36088 0.5
vt 2.11576e-16 0.707466
f 14/30/7 6/29/7 15/32/7

v 0.284512 -1.33392 0.5
vt 1.18793 0.251477
vt 1.35247 0.210653
f 6/10/3 16/33/3 15/34/3

f 16/33/3 6/10/3 8/12/3

v -0.0662919 -1.40625 0.5
vt 0.656735 0.141959
f 17/35/3 16/33/3 8/12/3

v 0.0758352 -1.40625 0.5
vt 0.871949 0.141959
f 17/35/3 18/36/3 16/33/3

v 0.00477164 -1.5 0.5
vt 0.764342 2.49564e-32
f 18/36/3 17/35/3 19/37/3

v -0.0662919 -1.40625 0.49
vt -0.0151423 -0.283589
vn -0.796925 -0.604078 -3.7103e-15
vt -3.96853e-15 -0.461722
vt -3.46753e-15 -0.283589
f 20/38/8 19/39/8 17/40/8

v 0.00477164 -1.5 0.49
vt -0.0151423 -0.461722
f 19/39/8 20/38/8 21/41/8

vt -0.656735 0.141959
v 0.0758352 -1.40625 0.49
vt -0.871949 0.141959
vt -0.764342 1.53784e-18
f 20/42/6 22/43/6 21/44/6

f 22/43/6 20/42/6 12/26/6

vt -9.14833e-15 -0.570719
vn -0.336364 -0.941732 -4.47559e-15
vt -0.0151423 -0.240993
vt -0.0151423 -0.570719
f 17/45/9 12/46/9 20/47/9

vt -5.15333e-15 -0.240993
f 12/46/9 17/45/9 8/48/9

vt 5.25118e-15 0.39895
vn 0.253106 -0.967439 3.43931e-15
vt 0.0151423 0.232166
vt 0.0151423 0.39895
f 8/49/10 10/50/10 12/51/10

vt 2.51207e-15 0.232166
f 10/50/10 8/49/10 9/52/10

vt -0.184868 0.210653
f 11/24/6 12/26/6 10/53/6

f 22/43/6 12/26/6 13/27/6

vt 5.41506e-15 1.20478
vn 0.32748 -0.944858 1.34211e-15
vt 0.0151423 0.870357
vt 0.0151423 1.20478
f 16/54/11 22/55/11 13/56/11

vt 3.98342e-15 0.870357
f 22/55/11 16/54/11 18/57/11

vt 4.33045e-15 0.639856
vn 0.796925 -0.604078 3.5832e-15
vt 0.0151423 0.461722
vt 0.0151423 0.639856
f 18/58/12 21/59/12 22/60/12

vt 3.84662e-15 0.461722
f 21/59/12 18/58/12 19/61/12

vt -0.0151423 -1.26193
vn -0.24082 -0.97057 7.17518e-17
vt -1.92629e-16 -1.09241
vt -0.0151423 -1.09241
f 14/62/13 16/63/13 13/64/13

vt 2.66322e-16 -1.26193
f 16/63/13 14/62/13 15/65/13

vt -1.51423 3.02847
f 5/23/6 2/25/6 4/66/6

