# Alias OBJ Model File
# Exported from SketchUp, (c) 2000-2012 Trimble Navigation Limited
# File units = meters

mtllib aedeco_banner_point.mtl

g Mesh1 Group1 Model

usemtl Carpet_Pattern_Squares_Multi
v -0.5 -0.49 -0.5
vt -2.73286e-16 1.51423
vn 2.91434e-16 -1 3.22692e-16
v 0.005 -0.49 -1.5
vt 0.764688 3.69915e-32
v 0.5 -0.49 -0.5
vt 1.51423 1.51423
f 1/1/1 2/2/1 3/3/1

v 0.5 -0.49 0.5
vt 1.51423 3.02847
vn 2.91434e-16 -1 2.32453e-16
f 4/4/2 1/1/2 3/3/2

v -0.5 -0.49 0.5
vt -2.73286e-16 3.02847
f 1/1/2 4/4/2 5/5/2

