# Alias OBJ Model File
# Exported from SketchUp, (c) 2000-2012 Trimble Navigation Limited
# File units = meters

mtllib aedeco_banner_point.mtl

g Mesh1 Group1 Model

usemtl Carpet_Pattern_Squares_Multi
v -0.5 -0.5 0.5
vt -2.73286e-16 1.51423
vn 3.90866e-33 9.02389e-17 1
v 0.005 -1.5 0.5
vt 0.764688 3.69915e-32
v 0.5 -0.5 0.5
vt 1.51423 1.51423
f 1/1/1 2/2/1 3/3/1

vt -5.46571e-16 1.35166
vn -0.892635 -0.450781 -1.48334e-15
v 0.005 -1.5 0.49
vt -0.0151423 -0.344707
vt -1.68065e-15 -0.344707
f 1/4/2 4/5/2 2/6/2

v -0.5 -0.5 0.49
vt -0.0151423 1.35166
f 4/5/2 1/4/2 5/7/2

vt -5.46571e-16 1.51423
vn -1 0 -0
v -0.5 0.5 0.49
vt -0.0151423 3.02847
vt -0.0151423 1.51423
f 1/8/3 6/9/3 5/10/3

v -0.5 0.5 0.5
vt -5.46571e-16 3.02847
f 6/9/3 1/8/3 7/11/3

vn 0 0 1
v 0.5 0.5 0.5
vt 1.51423 3.02847
vt -2.73286e-16 3.02847
f 1/1/4 8/12/4 7/13/4

f 8/12/4 1/1/4 3/3/4

usemtl FrontColor
vt 7.10543e-15 1.42109e-14
vn 0 -1 -0
v 0.5 -0.5 0.49
vt -39.3701 0.393701
vt -39.3701 1.42109e-14
f 1/14/5 9/15/5 3/16/5

vt 7.10543e-15 0.393701
f 9/15/5 1/14/5 5/17/5

usemtl Carpet_Pattern_Squares_Multi
vt -1.51423 1.51423
vn -6.05212e-33 -9.02389e-17 -1
vt -0.764688 1.36643e-18
vt 2.73286e-16 1.51423
f 9/18/6 4/19/6 5/20/6

vt -1.27556e-15 2.02883
vn 0.896212 -0.443625 -1.07844e-15
vt 0.0151423 0.339235
vt 0.0151423 2.02883
f 3/21/7 4/22/7 9/23/7

vt -5.10248e-16 0.339235
f 4/22/7 3/21/7 2/24/7

vt 0.0151423 1.51423
vn 1 0 -0
vt 5.46571e-16 3.02847
vt 5.46571e-16 1.51423
f 9/25/8 8/26/8 3/27/8

v 0.5 0.5 0.49
vt 0.0151423 3.02847
f 8/26/8 9/25/8 10/28/8

vn 0 0 -1
vt 2.73286e-16 3.02847
vt -1.51423 3.02847
f 9/18/9 6/29/9 10/30/9

f 6/29/9 9/18/9 5/20/9

vt -2.73286e-16 0.0151423
vn 0 1 -0
vt 1.51423 5.46571e-16
vt 1.51423 0.0151423
f 6/31/10 8/32/10 10/33/10

vt -2.73286e-16 5.46571e-16
f 8/32/10 6/31/10 7/34/10

