# Alias OBJ Model File
# Exported from SketchUp, (c) 2000-2012 Trimble Navigation Limited
# File units = meters

mtllib aedeco_banner_taperskinny.mtl

g Mesh1 Group1 Model

usemtl Carpet_Pattern_Squares_Multi
v 0.5 0.5 0.5
vt 1.51423 4.09929e-16
vn 0 1 -0
v -0.5 0.5 0.49
vt 1.36643e-16 0.0151423
v -0.5 0.5 0.5
vt 1.36643e-16 4.09929e-16
f 1/1/1 2/2/1 3/3/1

v 0.5 0.5 0.49
vt 1.51423 0.0151423
f 2/2/1 1/1/1 4/4/1

v 0.105446 -0.940842 0.497344
vt 0.00402218 1.05877
vn 0.964492 -0.264112 5.34949e-15
vt 0.0151423 3.32086
vt 8.80853e-15 3.32086
f 5/5/2 4/6/2 1/7/2

v 0.105446 -0.940842 0.491731
vt 0.0125217 1.05877
f 4/6/2 5/5/2 6/8/2

usemtl FrontColor
vt -23.8365 0.104577
vn -8.80855e-32 -1 6.4306e-14
v -0.131272 -0.940842 0.491731
vt -14.5168 0.325565
vt -23.8365 0.325565
f 5/9/3 7/10/3 6/11/3

v -0.131272 -0.940842 0.497344
vt -14.5168 0.104577
f 7/10/3 5/9/3 8/12/3

usemtl Carpet_Pattern_Squares_Multi
vt 0.55834 0.846696
vn -3.79799e-19 0.00950046 0.999955
v -0.00501114 -1.22042 0.5
vt 0.749529 0.423329
vt 0.916788 0.846696
f 8/13/4 9/14/4 5/15/4

vt -0.00402218 0.54185
vn -0.911371 -0.411586 1.22051e-14
v -0.00501114 -1.22042 0.495
vt -0.00757117 0.0773319
vt -1.51201e-13 0.0773319
f 8/16/5 10/17/5 9/18/5

vt -0.0125217 0.54185
f 10/17/5 8/16/5 7/19/5

vt -0.00402218 0.681838
vn -0.96878 -0.247922 -0
vt -0.0151423 2.93392
vt -0.0125217 0.681838
f 8/20/6 2/21/6 7/22/6

vt -4.09929e-16 2.93392
f 2/21/6 8/20/6 3/23/6

vt 0.55834 0.846687
vn 8.63362e-20 -0.00184354 0.999998
vt 1.51423 3.02846
vt 1.36643e-16 3.02846
f 8/24/7 1/25/7 3/26/7

vt 0.916788 0.846687
f 1/25/7 8/24/7 5/27/7

vt -1.36644e-16 3.02848
vn -8.09403e-20 -0.00120114 -0.999999
vt -0.916788 0.846711
vt -0.55834 0.846711
f 2/28/8 6/29/8 7/30/8

vt -1.51423 3.02848
f 6/29/8 2/28/8 4/31/8

vt -0.916788 0.846785
vn 1.13937e-18 -0.011693 -0.999932
vt -0.749529 0.423408
vt -0.55834 0.846785
f 6/32/9 10/33/9 7/34/9

vt 0.00402218 1.12434
vn 0.930044 -0.367447 2.11737e-14
vt 0.00757117 0.669145
vt 0.0125217 1.12434
f 5/35/10 10/36/10 6/37/10

vt 1.78303e-13 0.669145
f 10/36/10 5/35/10 9/38/10

