# Alias OBJ Model File
# Exported from SketchUp, (c) 2000-2012 Trimble Navigation Limited
# File units = meters

mtllib barrel.mtl

g Mesh1 Group1 Model

usemtl acacia_barrel
v -0.392025 0.5 -0.226875
vt -0.627262 0.385407
vn -0.907354 0.260082 -0.33025
v -0.492404 0.327641 -0.0868241
vt -0.461325 0.206905
v -0.445626 0.5 -0.0796087
vt -0.470544 0.385407
f 1/1/1 2/2/1 3/3/1

v -0.433013 0.327641 -0.25
vt -0.634974 0.206905
f 2/2/1 1/1/1 4/4/1

v -0.291289 0.5 -0.346928
vt -0.699458 0.381595
vn -0.739857 0.259235 -0.620813
vt -0.534108 0.203136
vt -0.54274 0.381595
f 5/5/2 4/6/2 1/7/2

v -0.321394 0.327641 -0.383022
vt -0.707757 0.203136
f 4/6/2 5/5/2 6/8/2

vt -0.504963 0.377828
vn -0.482873 0.259488 -0.836361
v -0.17101 0.327641 -0.469846
vt -0.670586 0.199356
vt -0.496938 0.199356
f 5/9/3 7/10/3 6/11/3

v -0.155568 0.5 -0.425286
vt -0.66168 0.377828
f 7/10/3 5/9/3 8/12/3

vt 0.56313 0.377867
vn -0.167638 0.260811 -0.950723
v 0 0.327641 -0.5
vt 0.396952 0.19933
vt 0.5706 0.19933
f 8/13/4 9/14/4 7/15/4

v -0.00123101 0.5 -0.4525
vt 0.406412 0.377867
f 9/14/4 8/13/4 10/16/4

vt -0.392729 0.382186
vn 0.167533 0.26304 -0.950128
v 0.17101 0.327641 -0.469846
vt -0.559341 0.203537
vt -0.385693 0.203537
f 10/17/5 11/18/5 9/19/5

v 0.153106 0.5 -0.425286
vt -0.549447 0.382186
f 11/18/5 10/17/5 12/20/5

vt -0.112167 1.00287
vn 0.482 0.265904 -0.834848
v 0.321394 0.327641 -0.383022
vt -0.279041 0.824079
vt -0.105393 0.824079
f 12/21/6 13/22/6 11/23/6

v 0.288827 0.5 -0.346928
vt -0.268884 1.00287
f 13/22/6 12/21/6 14/24/6

vt -0.498921 0.382189
vn 0.737797 0.269052 -0.619085
v 0.433013 0.327641 -0.25
vt -0.665852 0.203231
vt -0.492204 0.203231
f 14/25/7 15/26/7 13/27/7

v 0.389563 0.5 -0.226875
vt -0.655638 0.382189
f 15/26/7 14/25/7 16/28/7

vt -0.500436 0.381201
vn 0.904236 0.272105 -0.329115
v 0.492404 0.327641 -0.0868241
vt -0.667215 0.202084
vt -0.493567 0.202084
f 16/29/8 17/30/8 15/31/8

v 0.443163 0.5 -0.0796087
vt -0.657154 0.381201
f 17/30/8 16/29/8 18/32/8

v 0.443163 0.5 -0.00125
vt -0.552377 0.379488
vn 0.961531 0.274696 1.09346e-17
vt -0.466803 0.200234
vt -0.474018 0.379488
f 19/33/9 17/34/9 18/35/9

v 0.443163 0.5 0.0771087
vt -0.630736 0.379488
f 20/36/9 17/34/9 19/33/9

v 0.492404 0.327641 0.0868241
vt -0.640451 0.200234
f 17/34/9 20/36/9 21/37/9

v 0.389563 0.5 0.224375
vt -0.700325 0.378562
vn 0.903053 0.276516 0.328685
vt -0.535896 0.19921
vt -0.543607 0.378562
f 22/38/10 21/39/10 20/40/10

v 0.433013 0.327641 0.25
vt -0.709544 0.19921
f 21/39/10 22/38/10 23/41/10

v 0.288827 0.5 0.344428
vt 0.418828 0.384184
vn 0.735991 0.277351 0.61757
vt 0.583844 0.204787
vt 0.575545 0.384184
f 24/42/11 23/43/11 22/44/11

v 0.321394 0.327641 0.383022
vt 0.410196 0.204787
f 23/43/11 24/42/11 25/45/11

vt 0.553417 0.382564
vn 0.48042 0.277102 0.832112
v 0.17101 0.327641 0.469846
vt 0.388675 0.20318
vt 0.562323 0.20318
f 24/46/12 26/47/12 25/48/12

v 0.153106 0.5 0.422786
vt 0.396699 0.382564
f 26/47/12 24/46/12 27/49/12

vt 0.560007 0.379063
vn 0.166913 0.275798 0.946613
v 9.02389e-17 0.327641 0.5
vt 0.395819 0.19975
vt 0.569467 0.19975
f 27/50/13 28/51/13 26/52/13

v -0.00123101 0.5 0.45
vt 0.403289 0.379063
f 28/51/13 27/50/13 29/53/13

vt 0.557433 0.382939
vn -0.167023 0.273593 0.947233
v -0.17101 0.327641 0.469846
vt 0.39368 0.203744
vt 0.567328 0.203744
f 29/54/14 30/55/14 28/56/14

v -0.155568 0.5 0.422786
vt 0.400716 0.382939
f 30/55/14 29/54/14 31/57/14

vt -0.485144 0.379594
vn -0.481325 0.270748 0.833679
v -0.321394 0.327641 0.383022
vt -0.648635 0.200548
vt -0.474987 0.200548
f 31/58/15 32/59/15 30/60/15

v -0.291289 0.5 0.344428
vt -0.641861 0.379594
f 32/59/15 31/58/15 33/61/15

vt -0.5877 0.381997
vn -0.738106 0.267605 0.619344
v -0.433013 0.327641 0.25
vt -0.751134 0.203115
vt -0.577485 0.203115
f 33/62/16 34/63/16 32/64/16

v -0.392025 0.5 0.224375
vt -0.744417 0.381997
f 34/63/16 33/62/16 35/65/16

vt 0.521947 0.381641
vn -0.906216 0.26454 0.329836
v -0.492404 0.327641 0.0868241
vt 0.35836 0.202916
vt 0.532008 0.202916
f 35/66/17 36/67/17 34/68/17

v -0.445626 0.5 0.0771087
vt 0.36523 0.381641
f 36/67/17 35/66/17 37/69/17

vt -0.448612 0.38128
vn -0.965088 0.261926 4.02419e-18
vt -0.612545 0.202686
vt -0.438897 0.202686
f 37/70/18 2/71/18 36/72/18

v -0.445626 0.5 -0.00125
vt -0.526971 0.38128
f 2/71/18 37/70/18 38/73/18

vt -0.60533 0.38128
f 2/71/18 38/73/18 3/74/18

v -0.492404 -0.5 -0
vt 0.493463 -0.999667
vn -1 -3.63438e-17 2.59833e-16
vt 0.580287 -0.172026
vt 0.406639 -0.172026
f 39/75/19 36/76/19 2/77/19

v -0.492404 -0.5 0.0868241
vt 0.580287 -0.999667
f 36/76/19 39/75/19 40/78/19

v -0.433013 -0.5 0.25
vt 0.561978 -1.00224
vn -0.939693 4.62397e-18 0.34202
vt 0.38833 -0.174595
vt 0.38833 -1.00224
f 41/79/20 36/80/20 40/81/20

vt 0.561978 -0.174595
f 36/80/20 41/79/20 34/82/20

v -0.321394 -0.5 0.383022
vt 0.504551 -1.00297
vn -0.766044 0 0.642788
vt 0.330903 -0.17533
vt 0.330903 -1.00297
f 42/83/21 34/84/21 41/85/21

vt 0.504551 -0.17533
f 34/84/21 42/83/21 32/86/21

vt 0.443254 -1.00109
vn -0.5 0 0.866025
vt 0.616902 -0.173448
vt 0.443254 -0.173448
f 42/87/22 30/88/22 32/89/22

v -0.17101 -0.5 0.469846
vt 0.616902 -1.00109
f 30/88/22 42/87/22 43/90/22

vt 0.395438 -1.00083
vn -0.173648 0 0.984808
vt 0.569086 -0.173186
vt 0.395438 -0.173186
f 43/91/23 28/92/23 30/93/23

v 9.02389e-17 -0.5 0.5
vt 0.569086 -1.00083
f 28/92/23 43/91/23 44/94/23

vt 0.437549 -1.00079
vn 0.173648 0 0.984808
vt 0.611197 -0.173148
vt 0.437549 -0.173148
f 44/95/24 26/96/24 28/97/24

v 0.17101 -0.5 0.469846
vt 0.611197 -1.00079
f 26/96/24 44/95/24 45/98/24

vt 0.35818 -1.00542
vn 0.5 0 0.866025
vt 0.531828 -0.177782
vt 0.35818 -0.177782
f 45/99/25 25/100/25 26/101/25

v 0.321394 -0.5 0.383022
vt 0.531828 -1.00542
f 25/100/25 45/99/25 46/102/25

v 0.433013 -0.5 0.25
vt 0.568695 -1.00667
vn 0.766044 0 0.642788
vt 0.395047 -0.179029
vt 0.395047 -1.00667
f 47/103/26 25/104/26 46/105/26

vt 0.568695 -0.179029
f 25/104/26 47/103/26 23/106/26

v 0.492404 -0.5 0.0868241
vt -0.546332 -1.00544
vn 0.939693 0 0.34202
vt -0.71998 -0.177799
vt -0.71998 -1.00544
f 48/107/27 23/108/27 47/109/27

vt -0.546332 -0.177799
f 23/108/27 48/107/27 21/110/27

v 0.492404 -0.5 -0
vt 0.502482 -1.00616
vn 1 0 -0
vt 0.415658 -0.17852
vt 0.415658 -1.00616
f 49/111/28 21/112/28 48/113/28

vt 0.589306 -0.17852
f 21/112/28 49/111/28 17/114/28

v 0.492404 -0.5 -0.0868241
vt 0.589306 -1.00616
f 17/114/28 49/111/28 50/115/28

v 0.433013 -0.5 -0.25
vt 0.605771 -1.0035
vn 0.939693 0 -0.34202
vt 0.432122 -0.175856
vt 0.432122 -1.0035
f 51/116/29 17/117/29 50/118/29

vt 0.605771 -0.175856
f 17/117/29 51/116/29 15/119/29

v 0.321394 -0.5 -0.383022
vt 0.580576 -1.00248
vn 0.766044 0 -0.642788
vt 0.406928 -0.174839
vt 0.406928 -1.00248
f 52/120/30 15/121/30 51/122/30

vt 0.580576 -0.174839
f 15/121/30 52/120/30 13/123/30

vt -0.72177 -1.00789
vn 0.5 0 -0.866025
vt -0.548122 -0.180244
vt -0.72177 -0.180244
f 52/124/31 11/125/31 13/126/31

v 0.17101 -0.5 -0.469846
vt -0.548122 -1.00789
f 11/125/31 52/124/31 53/127/31

vt 0.430682 -1.00622
vn 0.173648 0 -0.984808
vt 0.60433 -0.178574
vt 0.430682 -0.178574
f 53/128/32 9/129/32 11/130/32

v 0 -0.5 -0.5
vt 0.60433 -1.00622
f 9/129/32 53/128/32 54/131/32

v -0.17101 -0.5 -0.469846
vt 0.596182 -0.00123526
vn -0.173648 -6.76551e-19 -0.984808
vt 0.422534 0.826406
vt 0.422534 -0.00123526
f 55/132/33 9/133/33 54/134/33

vt 0.596182 0.826406
f 9/133/33 55/132/33 7/135/33

vt 0.421775 -0.0010062
vn -0.5 0 -0.866025
vt 0.595423 0.826635
vt 0.421775 0.826635
f 55/136/34 6/137/34 7/138/34

v -0.321394 -0.5 -0.383022
vt 0.595423 -0.0010062
f 6/137/34 55/136/34 56/139/34

v -0.433013 -0.5 -0.25
vt 0.572253 -1.00066
vn -0.766044 0 -0.642788
vt 0.398605 -0.173017
vt 0.398605 -1.00066
f 57/140/35 6/141/35 56/142/35

vt 0.572253 -0.173017
f 6/141/35 57/140/35 4/143/35

v -0.492404 -0.5 -0.0868241
vt 0.643253 -0.99952
vn -0.939693 0 -0.34202
vt 0.469605 -0.171878
vt 0.469605 -0.99952
f 58/144/36 4/145/36 57/146/36

vt 0.643253 -0.171878
f 4/145/36 58/144/36 2/147/36

vt 0.406639 -0.999667
f 39/75/19 2/77/19 58/148/19

g Mesh2 Group2 Model

usemtl acacia_cap
v 0.140903 0.5 -0.39176
vt 0.070734 0.5
v -0.00123101 0.47 -0.416822
vt -0.0735927 0.47
v 0.140903 0.47 -0.39176
vt 0.070734 0.47
f 59/149/23 60/150/23 61/151/23

v -0.00123101 0.5 -0.416822
vt -0.0735927 0.5
f 60/150/23 59/149/23 62/152/23

vt -0.499357 0.950519
vn 0 1 -0
vt -0.499357 0.914842
vt -0.357223 0.88978
f 10/153/37 62/154/37 59/155/37

v -0.143365 0.5 -0.39176
vt -0.641491 0.88978
f 10/153/37 63/156/37 62/154/37

vt -0.653694 0.923306
f 8/157/37 63/156/37 10/153/37

v -0.268356 0.5 -0.319597
vt -0.766482 0.817616
f 8/157/37 64/158/37 63/156/37

vt -0.789415 0.844947
f 5/159/37 64/158/37 8/157/37

v -0.361127 0.5 -0.209036
vt -0.859253 0.707055
f 5/159/37 65/160/37 64/158/37

vt -0.890151 0.724894
f 1/161/37 65/160/37 5/159/37

v -0.41049 0.5 -0.0734134
vt -0.908616 0.571433
f 1/161/37 66/162/37 65/160/37

vt -0.943752 0.577628
f 3/163/37 66/162/37 1/161/37

v -0.41049 0.5 0.0709134
vt -0.908616 0.427106
f 66/162/37 3/163/37 67/164/37

vt -0.890151 0.273644
f 3/163/37 35/165/37 67/164/37

vt -0.943752 0.499269
f 38/166/37 35/165/37 3/163/37

vt -0.943752 0.420911
f 35/165/37 38/166/37 37/167/37

v -0.361127 0.5 0.206536
vt -0.859253 0.291483
f 67/164/37 35/165/37 68/168/37

vt -0.789415 0.153592
f 68/168/37 35/165/37 33/169/37

v -0.268356 0.5 0.317097
vt -0.766482 0.180922
f 68/168/37 33/169/37 69/170/37

vt -0.653694 0.075233
f 69/170/37 33/169/37 31/171/37

v -0.143365 0.5 0.38926
vt -0.641491 0.108759
f 69/170/37 31/171/37 70/172/37

vt -0.499357 0.0480193
f 70/172/37 31/171/37 29/173/37

v -0.00123101 0.5 0.414322
vt -0.499357 0.083697
f 70/172/37 29/173/37 71/174/37

v 0.140903 0.5 0.38926
vt -0.357223 0.108759
f 71/174/37 29/173/37 72/175/37

vt -0.345021 0.075233
f 72/175/37 29/173/37 27/176/37

v 0.265894 0.5 0.317097
vt -0.232232 0.180922
f 72/175/37 27/176/37 73/177/37

vt -0.209299 0.153592
f 73/177/37 27/176/37 24/178/37

v 0.358665 0.5 0.206536
vt -0.139461 0.291483
f 73/177/37 24/178/37 74/179/37

vt -0.108563 0.273644
f 74/179/37 24/178/37 22/180/37

v 0.408028 0.5 0.0709134
vt -0.0900983 0.427106
f 74/179/37 22/180/37 75/181/37

vt -0.0549626 0.420911
f 75/181/37 22/180/37 20/182/37

v 0.408028 0.5 -0.00125
vt -0.0900983 0.499269
f 75/181/37 20/182/37 76/183/37

v 0.408028 0.5 -0.0734134
vt -0.0900983 0.571433
f 76/183/37 20/182/37 77/184/37

vt -0.0549626 0.577628
f 18/185/37 77/184/37 20/182/37

vt -0.108563 0.724894
f 16/186/37 77/184/37 18/185/37

v 0.358665 0.5 -0.209036
vt -0.139461 0.707055
f 16/186/37 78/187/37 77/184/37

vt -0.209299 0.844947
f 14/188/37 78/187/37 16/186/37

v 0.265894 0.5 -0.319597
vt -0.232232 0.817616
f 14/188/37 79/189/37 78/187/37

vt -0.345021 0.923306
f 12/190/37 79/189/37 14/188/37

f 12/190/37 59/155/37 79/189/37

f 10/153/37 59/155/37 12/190/37

vt -0.0738545 0.47
vt 0.0704723 0.5
vt -0.0738545 0.5
f 61/191/22 79/192/22 59/193/22

v 0.265894 0.47 -0.319597
vt 0.0704723 0.47
f 79/192/22 61/191/22 80/194/22

vt -0.355691 0.886119
v 0.265894 0.47 0.317097
vt -0.230701 0.177262
vt -0.230701 0.813956
f 61/195/37 81/196/37 80/197/37

v 0.140903 0.47 0.38926
vt -0.355691 0.105099
f 61/195/37 82/198/37 81/196/37

vt -0.497825 0.911182
f 60/199/37 82/198/37 61/195/37

v -0.00123101 0.47 0.414322
vt -0.497825 0.080037
f 60/199/37 83/200/37 82/198/37

v -0.143365 0.47 0.38926
vt -0.63996 0.105099
f 60/199/37 84/201/37 83/200/37

v -0.143365 0.47 -0.39176
vt -0.63996 0.886119
f 85/202/37 84/201/37 60/199/37

v -0.268356 0.47 0.317097
vt -0.76495 0.177262
f 85/202/37 86/203/37 84/201/37

v -0.268356 0.47 -0.319597
vt -0.76495 0.813956
f 87/204/37 86/203/37 85/202/37

v -0.361127 0.47 -0.209036
vt -0.857722 0.703395
f 88/205/37 86/203/37 87/204/37

v -0.361127 0.47 0.206536
vt -0.857722 0.287823
f 88/205/37 89/206/37 86/203/37

v -0.41049 0.47 -0.0734134
vt -0.907084 0.567773
f 90/207/37 89/206/37 88/205/37

v -0.41049 0.47 -0.00125
vt -0.907084 0.495609
f 91/208/37 89/206/37 90/207/37

v -0.41049 0.47 0.0709134
vt -0.907084 0.423446
f 89/206/37 91/208/37 92/209/37

vt 0.00125 0.47
vt -0.0709134 0.5
vt -0.0709134 0.47
f 91/210/28 67/211/28 92/212/28

v -0.41049 0.5 -0.00125
vt 0.00125 0.5
f 67/211/28 91/210/28 93/213/28

vt 0.0734134 0.47
f 90/214/28 93/213/28 91/210/28

vt 0.0734134 0.5
f 93/213/28 90/214/28 66/215/28

vt 0.072917 0.47
vt -0.0714098 0.5
vt -0.0714098 0.47
f 88/216/27 66/217/27 90/218/27

vt 0.072917 0.5
f 66/217/27 88/216/27 65/219/27

vt 0.0723296 0.47
vt -0.0719971 0.5
vt -0.0719971 0.47
f 87/220/26 65/221/26 88/222/26

vt 0.0723296 0.5
f 65/221/26 87/220/26 64/223/26

vt -0.0726045 0.47
vt 0.0717223 0.5
vt -0.0726045 0.5
f 87/224/25 63/225/25 64/226/25

vt 0.0717223 0.47
f 63/225/25 87/224/25 85/227/25

vt -0.0731586 0.47
vt 0.0711681 0.5
vt -0.0731586 0.5
f 85/228/24 62/229/24 63/230/24

vt 0.0711681 0.47
f 62/229/24 85/228/24 60/231/24

vt -0.908616 0.499269
f 66/162/37 67/164/37 93/232/37

vt -0.0705677 0.5
vt 0.073759 0.47
vt 0.073759 0.5
f 68/233/29 92/234/29 67/235/29

vt -0.0705677 0.47
f 92/234/29 68/233/29 89/236/29

vt -0.0704145 0.5
vt 0.0739122 0.47
vt 0.0739122 0.5
f 69/237/30 89/238/30 68/239/30

vt -0.0704145 0.47
f 89/238/30 69/237/30 86/240/30

vt 0.0738545 0.5
vt -0.0704723 0.47
vt 0.0738545 0.47
f 69/241/31 84/242/31 86/243/31

vt -0.0704723 0.5
f 84/242/31 69/241/31 70/244/31

vt 0.0735927 0.5
vt -0.070734 0.47
vt 0.0735927 0.47
f 70/245/32 83/246/32 84/247/32

vt -0.070734 0.5
f 83/246/32 70/245/32 71/248/32

vt 0.0731586 0.5
vn -0.173648 0 -0.984808
vt -0.0711681 0.47
vt 0.0731586 0.47
f 71/249/38 82/250/38 83/251/38

vt -0.0711681 0.5
f 82/250/38 71/249/38 72/252/38

vt 0.0726045 0.5
vt -0.0717223 0.47
vt 0.0726045 0.47
f 72/253/34 81/254/34 82/255/34

vt -0.0717223 0.5
f 81/254/34 72/253/34 73/256/34

vt -0.0723296 0.5
vt 0.0719971 0.47
vt 0.0719971 0.5
f 74/257/35 81/258/35 73/259/35

v 0.358665 0.47 0.206536
vt -0.0723296 0.47
f 81/258/35 74/257/35 94/260/35

vt -0.072917 0.5
vt 0.0714098 0.47
vt 0.0714098 0.5
f 75/261/36 94/262/36 74/263/36

v 0.408028 0.47 0.0709134
vt -0.072917 0.47
f 94/262/36 75/261/36 95/264/36

vt -0.00125 0.5
vn -1 0 -0
vt 0.0709134 0.47
vt 0.0709134 0.5
f 76/265/39 95/266/39 75/267/39

v 0.408028 0.47 -0.00125
vt -0.00125 0.47
f 95/266/39 76/265/39 96/268/39

vt -0.0734134 0.5
f 77/269/39 96/268/39 76/265/39

v 0.408028 0.47 -0.0734134
vt -0.0734134 0.47
f 96/268/39 77/269/39 97/270/39

vt -0.073759 0.5
vn -0.939693 0 0.34202
vt 0.0705677 0.47
vt 0.0705677 0.5
f 78/271/40 97/272/40 77/273/40

v 0.358665 0.47 -0.209036
vt -0.073759 0.47
f 97/272/40 78/271/40 98/274/40

vt -0.0739122 0.5
vt 0.0704145 0.47
vt 0.0704145 0.5
f 79/275/21 98/276/21 78/277/21

vt -0.0739122 0.47
f 98/276/21 79/275/21 80/278/21

vt -0.137929 0.287823
vt -0.137929 0.703395
f 80/197/37 94/279/37 98/280/37

f 80/197/37 81/196/37 94/279/37

vt -0.0885666 0.423446
f 98/280/37 94/279/37 95/281/37

vt -0.0885666 0.567773
f 98/280/37 95/281/37 97/282/37

vt -0.0885666 0.495609
f 97/282/37 95/281/37 96/283/37

vt -0.0549626 0.499269
f 18/185/37 20/182/37 19/284/37

g Mesh3 Group2 Model

vt -0.0705681 0.749532
vn -4.67811e-17 -1 -4.7714e-17
vt -0.011177 0.499532
vt -0.011177 0.586356
f 57/285/41 39/286/41 58/287/41

vt -0.011177 0.412708
f 39/286/41 57/285/41 40/288/41

vt -0.0705681 0.249532
f 40/288/41 57/285/41 41/289/41

vt -0.182187 0.882554
f 41/289/41 57/285/41 56/290/41

vt -0.182187 0.11651
f 41/289/41 56/290/41 42/291/41

vt -0.332571 0.969379
f 42/291/41 56/290/41 55/292/41

vt -0.332571 0.0296859
f 42/291/41 55/292/41 43/293/41

vt -0.503581 0.999532
f 43/293/41 55/292/41 54/294/41

vt -0.503581 -0.000467771
f 43/293/41 54/294/41 44/295/41

vt -0.674591 0.969379
f 44/295/41 54/294/41 53/296/41

vt -0.674591 0.0296859
f 44/295/41 53/296/41 45/297/41

vt -0.824975 0.882554
f 45/297/41 53/296/41 52/298/41

vt -0.824975 0.11651
f 45/297/41 52/298/41 46/299/41

vt -0.936594 0.749532
f 46/299/41 52/298/41 51/300/41

vt -0.936594 0.249532
f 46/299/41 51/300/41 47/301/41

vt -0.995985 0.586356
f 47/301/41 51/300/41 50/302/41

vt -0.995985 0.412708
f 47/301/41 50/302/41 48/303/41

vt -0.995985 0.499532
f 48/303/41 50/302/41 49/304/41

