# Alias OBJ Model File
# Exported from SketchUp, (c) 2000-2012 Trimble Navigation Limited
# File units = meters

mtllib aedeco_banner_halfpoint.mtl

g Mesh1 Group1 Model

usemtl Carpet_Pattern_Squares_Multi
v -0.0662919 -0.49 -1.40625
vt -0.656735 0.141959
vn -2.6664e-17 1 -3.16665e-16
v 0.0758352 -0.49 -1.40625
vt -0.871949 0.141959
v 0.00477164 -0.49 -1.5
vt -0.764342 1.53784e-18
f 1/1/1 2/2/1 3/3/1

v -0.271355 -0.49 -1.33301
vt -0.346222 0.252867
f 2/2/1 1/1/1 4/4/1

v 0.284512 -0.49 -1.33392
vt -1.18793 0.251477
f 2/2/1 4/4/1 5/5/1

v 0.5 -0.49 -1.1
vt -1.51423 0.605694
f 6/6/1 5/5/1 4/4/1

v 0.393168 -0.49 -1.36088
vt -1.35247 0.210653
f 5/5/1 6/6/1 7/7/1

v -0.5 -0.49 -1.1
vt 2.72882e-16 0.605694
f 6/6/1 4/4/1 8/8/1

v -0.377913 -0.49 -1.36088
vt -0.184868 0.210653
f 8/8/1 4/4/1 9/9/1

v -0.5 -0.49 0.5
vt 2.72882e-16 3.02847
f 6/6/1 8/8/1 10/10/1

v 0.5 -0.49 0.5
vt -1.51423 3.02847
f 6/6/1 10/10/1 11/11/1

