# Alias OBJ Model File
# Exported from SketchUp, (c) 2000-2012 Trimble Navigation Limited
# File units = meters

mtllib stair_straight.mtl

g Mesh1 Group1 Model

usemtl FrontColor
v -0.5 1 -0.25
vt 39.3701 39.3701
vn 3.60956e-16 -3.52996e-32 -1
v 0.5 1 -0.25
vt -1.31129e-18 39.3701
v 0.5 0.75 -0.25
vt -1.31129e-18 29.5276
v -0.5 0.75 -0.25
vt 39.3701 29.5276
f 1/1/1 2/2/1 3/3/1 4/4/1 

v 0.5 1 -0.5
vt 0 0
vn -0 -1 -0
vt 0 9.84252
vt -39.3701 9.84252
v -0.5 1 -0.5
vt -39.3701 0
f 5/5/2 2/6/2 1/7/2 6/8/2 

v 0.5 0 -0.5
vn -1 0 -3.60822e-16
v 0.5 0 0.5
vt 39.3701 0
v 0.5 0.25 0.5
vt 39.3701 9.84252
v 0.5 0.25 0.25
vt 29.5276 9.84252
v 0.5 0.5 0.25
vt 29.5276 19.685
v 0.5 0.5 3.60956e-16
vt 19.685 19.685
v 0.5 0.75 3.60956e-16
vt 19.685 29.5276
vt 9.84252 29.5276
vt 9.84252 39.3701
vt 0 39.3701
f 7/5/3 8/9/3 9/10/3 10/11/3 11/12/3 12/13/3 13/14/3 3/15/3 2/16/3 5/17/3 

vn 0 1 -0
v -0.5 0 -0.5
v -0.5 0 0.5
f 8/17/4 7/5/4 14/9/4 15/1/4 

vn -3.60822e-16 0 1
vt -39.3701 39.3701
f 14/8/5 7/5/5 5/17/5 6/18/5 

vt -5.24515e-18 39.3701
vn 1 -1.1485e-16 3.60956e-16
vt -9.84252 39.3701
vt -9.84252 29.5276
v -0.5 0.75 -9.02389e-17
vt -19.685 29.5276
v -0.5 0.5 -9.02389e-17
vt -19.685 19.685
v -0.5 0.5 0.25
vt -29.5276 19.685
v -0.5 0.25 0.25
vt -29.5276 9.84252
v -0.5 0.25 0.5
vt -39.3701 -4.52164e-15
vt -5.24515e-18 -4.52164e-15
f 6/19/6 1/20/6 4/21/6 16/22/6 17/23/6 18/24/6 19/25/6 20/7/6 15/26/6 14/27/6 

vt 0 19.685
vt -39.3701 19.685
f 3/6/2 13/28/2 16/29/2 4/7/2 

vt -1.77832e-15 29.5276
vn 4.51161e-16 -3.45809e-33 -1
vt -1.77832e-15 19.685
vt 39.3701 19.685
f 13/30/7 12/31/7 17/32/7 16/4/7 

vt -1.42109e-16 19.685
vn -7.21911e-18 -1 4.18709e-16
vt -1.42109e-16 29.5276
vt -39.3701 29.5276
f 12/33/8 11/34/8 18/35/8 17/29/8 

vt -1.43868e-15 19.685
vn 4.09546e-16 1.9314e-32 -1
vt -1.43868e-15 9.84252
f 11/36/9 10/37/9 19/10/9 18/32/9 

vt 7.652e-15 29.5276
vn 7.77443e-16 -1 8.20897e-32
vt 7.652e-15 39.3701
f 10/38/10 9/39/10 20/18/10 19/35/10 

vt 5.63189e-16 9.84252
vn 3.46517e-16 1.15506e-16 -1
vt 5.63189e-16 4.54747e-15
vt 39.3701 4.54747e-15
f 9/40/11 8/41/11 15/42/11 20/10/11 

